<svg width="380" height="245" viewBox="0 0 380 245" fill="none" xmlns="http://www.w3.org/2000/svg">
<path fill-rule="evenodd" clip-rule="evenodd" d="M284.79 232.327C284.068 236.657 280.098 239.544 275.768 238.823C271.437 238.101 268.55 234.131 269.272 229.8C269.994 225.47 273.963 222.583 278.294 223.304C282.986 224.026 285.873 227.996 284.79 232.327Z" fill="#FF6643"/>
<path fill-rule="evenodd" clip-rule="evenodd" d="M242.205 243.153C242.205 244.597 242.566 244.597 242.927 243.153L251.949 218.613C252.31 217.169 253.754 216.448 255.197 217.169L266.746 222.944C268.189 223.665 268.55 222.943 267.828 221.861L260.971 210.312C260.25 209.23 260.61 207.425 262.054 206.704L285.151 193.712C286.594 192.99 286.233 192.629 284.79 192.99L257.362 199.125C255.919 199.486 254.114 198.764 253.393 197.321L252.31 195.516C251.588 194.433 249.784 192.629 248.701 191.907L206.838 166.284C205.756 165.562 205.395 165.923 206.116 167.006L234.987 206.343C235.709 207.425 237.514 208.869 238.957 209.591L241.483 210.673C242.927 211.395 243.649 213.2 243.649 214.643L242.205 243.153Z" fill="#FF6643"/>
<path fill-rule="evenodd" clip-rule="evenodd" d="M298.143 13.629C297.421 17.9597 293.451 20.8468 289.121 20.125C284.79 19.4032 281.903 15.4335 282.625 11.1028C283.346 6.77218 287.316 3.8851 291.647 4.60687C295.616 4.96776 298.864 9.2984 298.143 13.629Z" fill="#FF6643"/>
<path fill-rule="evenodd" clip-rule="evenodd" d="M353.719 9.29835C352.998 13.629 349.028 16.5161 344.697 15.7943C340.367 15.0726 337.479 11.1028 338.201 6.77215C338.923 2.4415 342.893 -0.44559 347.223 0.276185C351.193 0.997959 354.441 4.9677 353.719 9.29835Z" fill="#FF6643"/>
<path fill-rule="evenodd" clip-rule="evenodd" d="M347.223 64.1533C347.223 62.7097 348.667 61.6271 350.11 61.988L378.26 66.6795C379.703 67.0404 380.064 66.3186 378.981 65.2359L355.524 41.7783C354.441 40.6956 354.441 38.8912 355.524 37.8085L370.681 19.7642C371.764 18.6815 371.403 18.3206 369.959 19.0424L352.276 29.869C351.193 30.5908 349.389 30.2299 349.028 28.7863L345.419 19.7642C344.697 18.3206 343.975 18.3206 343.254 19.7642L339.645 28.4254C339.284 29.869 337.479 30.9517 336.036 31.3126L308.969 35.2823C307.526 35.6432 305 35.6432 303.556 36.0041L278.294 38.1694C276.85 38.1694 276.129 37.4476 276.489 36.0041L281.903 23.373C282.625 21.9295 281.903 21.5686 280.82 22.2904L265.663 31.3126C264.58 32.0343 262.776 31.6734 262.054 30.2299L246.536 4.96778C245.814 3.88512 245.453 3.88512 245.814 5.32866L253.032 36.0041C253.393 37.4476 253.032 39.613 251.949 40.6956L214.056 84.7238C212.973 85.8065 213.334 86.1674 214.778 85.8065L249.784 71.0101C251.227 70.2884 253.393 70.2884 254.836 70.2884L289.842 76.4235C291.286 76.7843 291.286 76.4234 290.203 75.3408L268.911 61.988C267.828 61.2662 267.106 59.4617 267.828 58.0182L269.994 52.6049C270.715 51.1613 272.159 49.7178 273.602 49.3569L300.669 39.2521C302.112 38.8912 304.278 38.5303 305.721 38.5303L331.344 42.1392C332.788 42.5001 334.231 43.5827 334.592 45.0263L343.254 89.7763C343.614 91.2198 343.975 91.2198 343.975 89.7763L347.223 64.1533Z" fill="#FF6643"/>
<path fill-rule="evenodd" clip-rule="evenodd" d="M42.9956 95.1895C43.3565 99.5201 39.7476 103.129 35.4169 103.49C31.0863 103.851 27.4774 100.242 27.1165 95.9112C26.7556 91.5806 30.3645 87.9717 34.6952 87.6108C39.0258 87.25 42.9956 90.4979 42.9956 95.1895Z" fill="#FF6643"/>
<path fill-rule="evenodd" clip-rule="evenodd" d="M100.737 148.24C102.181 147.879 102.181 147.518 100.737 147.518L57.0701 148.601C55.6266 148.601 54.183 147.518 53.4613 146.075L49.8524 135.609C49.4915 134.165 49.4915 132 49.8524 130.556L59.9572 98.7984C60.3181 97.3548 59.9572 97.3548 59.2354 98.4375L44.4391 116.121C43.3564 117.204 42.2738 117.204 41.552 115.76L37.9431 107.46C37.2213 106.016 36.8604 106.377 36.8604 107.821L36.1387 119.369C36.1387 120.812 34.6951 121.895 33.2516 121.895L1.13262 121.534C-0.310927 121.534 -0.310925 121.895 0.771736 122.617L35.056 137.052C36.4996 137.774 37.2213 139.218 37.2213 140.661L26.7556 207.786C26.3947 209.23 27.1165 209.23 27.4774 208.147L50.2133 167.728C50.935 166.284 52.7395 164.841 54.183 164.48L100.737 148.24Z" fill="#FF6643"/>
<path fill-rule="evenodd" clip-rule="evenodd" d="M152.706 38.8912C152.345 37.4477 153.427 36.365 154.871 36.365L173.637 36.7259C175.081 36.7259 176.163 37.8085 175.802 39.2521L163.532 87.9718C163.171 89.4154 162.81 89.4154 162.45 87.9718L152.706 38.8912Z" fill="#95C7EB"/>
<path fill-rule="evenodd" clip-rule="evenodd" d="M175.802 234.853C176.163 236.296 175.081 237.379 173.637 237.379L154.871 237.018C153.427 237.018 152.345 235.935 152.706 234.492L164.976 185.772C165.337 184.329 165.697 184.329 166.058 185.772L175.802 234.853Z" fill="#95C7EB"/>
<path fill-rule="evenodd" clip-rule="evenodd" d="M180.133 39.613C180.133 38.1694 181.576 37.4476 183.02 37.8085L201.064 43.2218C202.508 43.5827 202.869 45.0263 202.147 46.4698L176.885 89.7763C176.163 91.2198 175.802 90.859 175.802 89.4154L180.133 39.613Z" fill="#0B76AF"/>
<path fill-rule="evenodd" clip-rule="evenodd" d="M148.014 234.131C148.014 235.575 146.57 236.296 145.127 235.936L127.082 230.522C125.639 230.161 125.278 228.718 126 227.274L151.262 183.968C151.984 182.524 152.344 182.885 152.344 184.329L148.014 234.131Z" fill="#0B76AF"/>
<path fill-rule="evenodd" clip-rule="evenodd" d="M206.477 47.9133C206.838 46.4697 208.282 46.1088 209.725 46.8306L225.605 57.2963C226.687 58.0181 227.048 59.4617 225.965 60.5443L189.877 95.1895C188.794 96.2722 188.433 95.9113 188.794 94.4677L206.477 47.9133Z" fill="#0B76AF"/>
<path fill-rule="evenodd" clip-rule="evenodd" d="M121.669 225.831C121.308 227.274 119.865 227.635 118.421 226.913L102.542 216.448C101.459 215.726 101.098 214.282 102.181 213.2L138.27 178.554C139.352 177.472 139.713 177.833 139.352 179.276L121.669 225.831Z" fill="#0B76AF"/>
<path fill-rule="evenodd" clip-rule="evenodd" d="M98.9332 210.673C98.2114 211.756 96.407 211.756 95.6852 210.673L83.415 196.238C82.3324 195.155 82.6933 193.712 84.1368 192.99L128.526 169.532C129.969 168.81 130.33 169.171 129.248 170.254L98.9332 210.673Z" fill="#95C7EB"/>
<path fill-rule="evenodd" clip-rule="evenodd" d="M247.258 84.0021C248.341 83.2803 249.784 83.6412 250.506 84.7239L258.445 101.686C259.167 103.129 258.445 104.212 257.002 104.573L207.921 115.038C206.478 115.399 206.117 115.038 207.56 113.956L247.258 84.0021Z" fill="#0B76AF"/>
<path fill-rule="evenodd" clip-rule="evenodd" d="M80.889 189.742C79.8063 190.464 78.3628 190.103 77.641 189.02L69.7015 172.059C68.9797 170.615 69.7015 169.532 71.145 169.171L120.226 159.067C121.669 158.706 122.03 159.067 120.587 160.149L80.889 189.742Z" fill="#0B76AF"/>
<path fill-rule="evenodd" clip-rule="evenodd" d="M258.806 109.264C260.25 108.903 261.333 109.625 261.693 111.069L264.58 129.835C264.941 131.278 263.859 132.361 262.415 132.361L212.252 128.391C210.808 128.391 210.808 127.669 212.252 127.308L258.806 109.264Z" fill="#0B76AF"/>
<path fill-rule="evenodd" clip-rule="evenodd" d="M262.776 136.331C264.219 136.331 265.302 137.413 264.941 138.857L262.415 157.623C262.054 159.066 260.971 159.788 259.528 159.427L212.613 141.744C211.169 141.383 211.169 140.661 212.613 140.661L262.776 136.331Z" fill="#95C7EB"/>
<path fill-rule="evenodd" clip-rule="evenodd" d="M65.3706 137.413C63.9271 137.413 62.8444 136.331 63.2053 134.887L65.7315 116.121C66.0924 114.677 67.1751 113.956 68.6186 114.317L115.534 132C116.977 132.361 116.977 133.083 115.534 133.083L65.3706 137.413Z" fill="#0B76AF"/>
<path fill-rule="evenodd" clip-rule="evenodd" d="M259.167 163.758C260.611 164.119 261.332 165.563 260.611 166.645L253.032 183.968C252.31 185.411 250.867 185.772 249.784 184.69L209.365 154.736C208.282 154.014 208.282 153.292 209.726 153.653L259.167 163.758Z" fill="#0B76AF"/>
<path fill-rule="evenodd" clip-rule="evenodd" d="M69.3406 109.986C67.897 109.625 67.1753 108.182 67.897 107.099L75.4757 89.7763C76.1974 88.3328 77.641 87.9719 78.7237 89.0546L119.143 119.008C120.226 119.73 120.226 120.452 118.782 120.091L69.3406 109.986Z" fill="#0B76AF"/>
<path fill-rule="evenodd" clip-rule="evenodd" d="M80.528 84.7239C79.0845 84.0021 79.0845 82.5585 79.8063 81.4759L91.7155 67.0404C92.7982 65.9577 94.2417 65.9577 94.9635 67.0404L125.278 107.099C126 108.182 126 108.542 124.556 107.821L80.528 84.7239Z" fill="#95C7EB"/>
<path fill-rule="evenodd" clip-rule="evenodd" d="M230.296 209.952C231.379 211.034 231.379 212.478 229.935 213.2L214.417 223.665C213.335 224.387 211.891 224.026 211.169 222.583L193.125 175.667C192.764 174.224 193.125 173.863 194.207 174.946L230.296 209.952Z" fill="#0B76AF"/>
<path fill-rule="evenodd" clip-rule="evenodd" d="M98.2113 63.7924C97.1286 62.7097 97.1287 61.2662 98.5722 60.5444L114.09 50.0787C115.173 49.3569 116.617 49.7178 117.338 51.1613L135.383 98.0766C135.744 99.5202 135.383 99.8811 134.3 98.7984L98.2113 63.7924Z" fill="#0B76AF"/>
<path fill-rule="evenodd" clip-rule="evenodd" d="M204.673 226.913C205.395 228.357 204.673 229.44 203.23 230.161L185.185 235.575C183.742 235.936 182.659 235.214 182.298 233.77L179.411 183.607C179.411 182.163 179.772 182.163 180.494 183.246L204.673 226.913Z" fill="#0B76AF"/>
<path fill-rule="evenodd" clip-rule="evenodd" d="M123.835 46.8307C123.113 45.3871 123.835 44.3044 125.278 43.5827L143.322 38.1694C144.766 37.8085 145.849 38.5302 146.21 39.9738L149.097 90.1372C149.097 91.5807 148.736 91.5807 148.014 90.498L123.835 46.8307Z" fill="#0B76AF"/>
</svg>
