<?xml version="1.0" encoding="utf-8"?>
<!-- Generator: Adobe Illustrator 25.2.0, SVG Export Plug-In . SVG Version: 6.00 Build 0)  -->
<svg version="1.1" id="Layer_1" xmlns="http://www.w3.org/2000/svg" xmlns:xlink="http://www.w3.org/1999/xlink" x="0px" y="0px"
	 viewBox="0 0 1440 320" style="enable-background:new 0 0 1440 320;" xml:space="preserve">
<style type="text/css">
	.st0{fill:#EBF3FA;}
</style>
<path class="st0" d="M1440,320h-48c-48,0-144,0-240,0s-192,0-288,0s-192,0-288,0s-192,0-288,0s-192,0-240,0H0v-89.7l48,7.5
	c48,7.2,144,22.6,240,33.6c96,11.4,192,18.4,288-3.8c96-22.6,192-74.5,288-74.7c96,0.2,192,52,288,71s192,3.5,240-3.7l48-7.5V320z"
	/>
</svg>
