<svg width="116" height="76" viewBox="0 0 116 76" fill="none" xmlns="http://www.w3.org/2000/svg">
<path fill-rule="evenodd" clip-rule="evenodd" d="M86.4165 71.4096C86.3289 71.8752 86.1054 72.3044 85.7743 72.6431C85.4431 72.9819 85.0191 73.2151 84.5557 73.3133C84.0923 73.4115 83.6102 73.3703 83.1701 73.195C82.73 73.0197 82.3516 72.718 82.0827 72.3281C81.8137 71.9381 81.6662 71.4772 81.6587 71.0036C81.6513 70.5299 81.7841 70.0646 82.0406 69.6664C82.2971 69.2681 82.6657 68.9546 83.1 68.7655C83.5344 68.5763 84.015 68.52 84.4813 68.6035C84.7932 68.6593 85.091 68.7765 85.3575 68.948C85.624 69.1196 85.8538 69.3423 86.0337 69.6032C86.2137 69.8641 86.3401 70.1581 86.4058 70.4681C86.4715 70.7782 86.4752 71.0982 86.4165 71.4096Z" fill="white"/>
<path fill-rule="evenodd" clip-rule="evenodd" d="M73.4953 74.7125C73.4953 75.1577 73.5727 75.1835 73.7275 74.7577L76.4111 67.2101C76.4435 67.1127 76.4965 67.0235 76.5667 66.9486C76.6368 66.8737 76.7223 66.815 76.8174 66.7763C76.9124 66.7377 77.0147 66.7201 77.1172 66.7249C77.2197 66.7296 77.3199 66.7564 77.411 66.8036L80.9461 68.5325C81.3461 68.726 81.488 68.5712 81.2623 68.1842L79.2108 64.7006C79.1566 64.6094 79.121 64.5082 79.1063 64.4031C79.0915 64.2979 79.0978 64.1909 79.1248 64.0882C79.1518 63.9856 79.199 63.8893 79.2636 63.805C79.3282 63.7208 79.409 63.6502 79.5011 63.5975L86.4617 59.5786C86.8488 59.3592 86.8101 59.256 86.3779 59.3528L78.0755 61.2494C77.8453 61.2908 77.608 61.2633 77.3934 61.1704C77.1787 61.0774 76.9964 60.9231 76.8691 60.7268L76.5208 60.1334C76.2339 59.6897 75.861 59.308 75.4241 59.0109L62.7738 51.1794C62.3996 50.9472 62.3029 51.0439 62.5674 51.4052L71.3471 63.4104C71.6756 63.8272 72.0862 64.1719 72.5535 64.4232L73.3082 64.7909C73.5168 64.9076 73.6903 65.078 73.8106 65.2845C73.9309 65.491 73.9935 65.726 73.992 65.965L73.4953 74.7125Z" fill="white"/>
<path fill-rule="evenodd" clip-rule="evenodd" d="M90.3776 4.5067C90.2964 4.97442 90.0787 5.40768 89.7519 5.75196C89.425 6.09624 89.0036 6.33614 88.5408 6.44149C88.0779 6.54683 87.5942 6.5129 87.1505 6.34398C86.7069 6.17505 86.3231 5.87866 86.0476 5.49213C85.772 5.1056 85.6169 4.64619 85.6018 4.17172C85.5867 3.69724 85.7123 3.2289 85.9628 2.82565C86.2133 2.4224 86.5774 2.10225 87.0095 1.90548C87.4415 1.70872 87.922 1.64414 88.3907 1.71988C88.7049 1.77066 89.006 1.88331 89.2764 2.05127C89.5468 2.21924 89.7812 2.4392 89.966 2.69841C90.1508 2.95761 90.2824 3.25091 90.353 3.56131C90.4237 3.87171 90.432 4.19305 90.3776 4.5067Z" fill="white"/>
<path fill-rule="evenodd" clip-rule="evenodd" d="M107.247 3.22297C107.166 3.6907 106.948 4.12396 106.621 4.46824C106.294 4.81251 105.873 5.05242 105.41 5.15776C104.947 5.26311 104.463 5.22918 104.02 5.06025C103.576 4.89132 103.192 4.59494 102.917 4.20841C102.641 3.82188 102.486 3.36247 102.471 2.88799C102.456 2.41352 102.581 1.94518 102.832 1.54193C103.082 1.13868 103.447 0.818521 103.879 0.621759C104.311 0.424998 104.791 0.360421 105.26 0.436155C105.574 0.487751 105.874 0.600907 106.144 0.769112C106.414 0.937318 106.648 1.15725 106.833 1.41626C107.018 1.67526 107.149 1.96823 107.22 2.2783C107.291 2.58837 107.3 2.90942 107.247 3.22297Z" fill="white"/>
<path fill-rule="evenodd" clip-rule="evenodd" d="M105.26 20.0342C105.275 19.9328 105.31 19.8354 105.363 19.7478C105.416 19.6602 105.486 19.5841 105.569 19.5239C105.652 19.4638 105.746 19.4209 105.846 19.3977C105.946 19.3746 106.049 19.3716 106.15 19.3891L114.691 20.7825C115.123 20.8535 115.227 20.6535 114.91 20.3374L107.75 13.1704C107.597 13.0117 107.508 12.8024 107.5 12.5823C107.491 12.3622 107.564 12.1467 107.705 11.9769L112.324 6.50007C112.614 6.15817 112.536 6.06785 112.156 6.30009L106.782 9.56428C106.699 9.62554 106.603 9.66603 106.501 9.68238C106.399 9.69873 106.295 9.69044 106.197 9.65823C106.099 9.62601 106.011 9.57079 105.938 9.4972C105.866 9.42361 105.813 9.3338 105.782 9.23527L104.666 6.48071C104.492 6.06785 104.215 6.06785 104.053 6.48071L103.008 9.14496C102.907 9.3667 102.755 9.56155 102.564 9.71391C102.374 9.86627 102.15 9.97188 101.912 10.0223L93.7577 11.2673C93.3191 11.3383 92.5966 11.4222 92.1579 11.4609L84.52 12.106C84.0749 12.1447 83.8749 11.835 84.0297 11.4222L85.636 7.55157C85.8037 7.13871 85.636 6.99034 85.2489 7.21612L80.6429 9.98359C80.457 10.0926 80.2356 10.1239 80.0267 10.0708C79.8178 10.0177 79.6382 9.88436 79.5269 9.69974L74.7855 1.90053C74.5532 1.51992 74.45 1.56508 74.5468 1.99729L76.7401 11.4351C76.7837 11.6814 76.7758 11.9341 76.717 12.1772C76.6581 12.4203 76.5496 12.6487 76.3982 12.8478L64.9413 26.3239C64.651 26.6658 64.7478 26.8012 65.1542 26.6271L75.7596 22.1114C76.2511 21.9266 76.7804 21.8646 77.3013 21.9308L87.8938 23.737C88.3325 23.8145 88.3841 23.6854 88.0035 23.4467L81.5525 19.4084C81.3654 19.2819 81.227 19.0953 81.1602 18.8795C81.0933 18.6638 81.102 18.4316 81.1848 18.2215L81.8815 16.5378C82.1053 16.0764 82.4844 15.7087 82.9524 15.4992L91.2096 12.3704C91.709 12.2001 92.2396 12.1407 92.7643 12.1963L100.505 13.3445C100.733 13.3956 100.942 13.5099 101.107 13.6742C101.272 13.8386 101.388 14.0463 101.441 14.2735L104.099 27.9818C104.183 28.4204 104.292 28.4204 104.344 27.9818L105.26 20.0342Z" fill="white"/>
<path fill-rule="evenodd" clip-rule="evenodd" d="M13.1079 29.4397C13.1253 29.9143 13.0017 30.3834 12.753 30.7879C12.5042 31.1924 12.1413 31.5143 11.7099 31.713C11.2786 31.9116 10.7981 31.9782 10.329 31.9043C9.85987 31.8304 9.4231 31.6194 9.0737 31.2978C8.72429 30.9761 8.47788 30.5583 8.36548 30.0969C8.25309 29.6355 8.27974 29.1511 8.44209 28.7048C8.60443 28.2586 8.89521 27.8703 9.2778 27.5889C9.66038 27.3076 10.1177 27.1457 10.5921 27.1238C10.9095 27.1099 11.2265 27.1589 11.525 27.268C11.8234 27.377 12.0974 27.5439 12.3311 27.7591C12.5649 27.9742 12.7539 28.2335 12.8872 28.5219C13.0205 28.8103 13.0955 29.1222 13.1079 29.4397Z" fill="white"/>
<path fill-rule="evenodd" clip-rule="evenodd" d="M30.6223 45.6768C31.0416 45.5219 31.0158 45.4058 30.5707 45.4123L17.2881 45.6961C17.0551 45.6902 16.8289 45.6162 16.6375 45.4832C16.446 45.3503 16.2977 45.1641 16.2108 44.9478L15.1077 41.7868C14.9627 41.2831 14.9627 40.7488 15.1077 40.2451L18.2751 30.646C18.4171 30.2203 18.2751 30.1557 18.0171 30.4976L13.5788 35.9229C13.5338 36.0018 13.466 36.0653 13.3843 36.105C13.3026 36.1448 13.2108 36.159 13.1209 36.1457C13.031 36.1325 12.9472 36.0924 12.8805 36.0308C12.8137 35.9692 12.7671 35.8889 12.7467 35.8003L11.6758 33.3103C11.4952 32.8974 11.3275 32.9297 11.2952 33.3748L11.0178 36.9293C10.9987 37.1467 10.8999 37.3494 10.7403 37.4982C10.5807 37.6471 10.3716 37.7317 10.1534 37.7356L0.418881 37.6711C-0.0262351 37.6711 -0.0520386 37.8066 0.354372 37.9808L10.7598 42.4255C10.9719 42.5207 11.1485 42.6805 11.2643 42.8821C11.3802 43.0837 11.4294 43.3167 11.4049 43.548L8.28261 64.1265C8.21809 64.5716 8.34066 64.6168 8.55354 64.2233L15.398 51.8632C15.6723 51.4218 16.0753 51.0751 16.5527 50.8698L30.6223 45.6768Z" fill="white"/>
<path fill-rule="evenodd" clip-rule="evenodd" d="M46.3045 12.2736C46.284 12.1784 46.2853 12.0797 46.3084 11.985C46.3315 11.8904 46.3758 11.8022 46.4379 11.7271C46.5 11.6519 46.5782 11.5919 46.6669 11.5513C46.7555 11.5108 46.8521 11.4909 46.9496 11.4931L52.6522 11.6092C52.7497 11.611 52.8455 11.6348 52.9324 11.6789C53.0193 11.723 53.0951 11.7862 53.1541 11.8639C53.213 11.9415 53.2537 12.0314 53.2729 12.127C53.2921 12.2225 53.2894 12.3212 53.2651 12.4156L49.5686 27.3108C49.459 27.7431 49.3042 27.7431 49.2138 27.3108L46.3045 12.2736Z" fill="white"/>
<path fill-rule="evenodd" clip-rule="evenodd" d="M53.3103 72.1902C53.3319 72.2859 53.3314 72.3853 53.3088 72.4808C53.2862 72.5763 53.2422 72.6654 53.1799 72.7413C53.1177 72.8172 53.039 72.8779 52.9498 72.9188C52.8606 72.9596 52.7633 72.9796 52.6652 72.9772L46.9625 72.8547C46.8624 72.8579 46.7628 72.8377 46.6718 72.7957C46.5808 72.7537 46.5008 72.6911 46.4382 72.6129C46.3756 72.5346 46.3321 72.4429 46.3112 72.3449C46.2902 72.2469 46.2923 72.1453 46.3174 72.0483L50.0203 57.1595C50.13 56.7208 50.2848 56.7273 50.3686 57.1595L53.3103 72.1902Z" fill="white"/>
<path fill-rule="evenodd" clip-rule="evenodd" d="M54.6651 12.4672C54.6722 12.37 54.7013 12.2757 54.7501 12.1913C54.7989 12.107 54.8661 12.0347 54.9468 11.9801C55.0275 11.9255 55.1196 11.8899 55.216 11.8759C55.3125 11.8619 55.4108 11.87 55.5037 11.8995L60.9483 13.6025C61.0422 13.6308 61.1284 13.6802 61.2003 13.7468C61.2723 13.8134 61.3281 13.8955 61.3636 13.987C61.399 14.0784 61.4132 14.1767 61.4049 14.2744C61.3967 14.3721 61.3663 14.4666 61.316 14.5508L53.7039 27.8269C53.4781 28.214 53.3297 28.1688 53.3684 27.7237L54.6651 12.4672Z" fill="white"/>
<path fill-rule="evenodd" clip-rule="evenodd" d="M44.9498 71.9967C44.9436 72.0944 44.9153 72.1895 44.8668 72.2747C44.8184 72.3598 44.7513 72.4328 44.6705 72.4881C44.5896 72.5435 44.4973 72.5797 44.4004 72.594C44.3035 72.6083 44.2046 72.6004 44.1112 72.5708L38.6666 70.8613C38.5737 70.8328 38.4884 70.7836 38.4171 70.7174C38.3459 70.6513 38.2905 70.5698 38.2551 70.4793C38.2197 70.3887 38.2053 70.2913 38.2129 70.1944C38.2205 70.0974 38.2499 70.0035 38.2989 69.9195L45.9626 56.6434C46.182 56.2563 46.3368 56.3015 46.2916 56.7466L44.9498 71.9967Z" fill="white"/>
<path fill-rule="evenodd" clip-rule="evenodd" d="M62.6384 14.996C62.6723 14.9041 62.7268 14.8213 62.7975 14.7536C62.8683 14.6859 62.9535 14.6353 63.0468 14.6054C63.14 14.5756 63.2388 14.5674 63.3357 14.5814C63.4326 14.5954 63.525 14.6313 63.606 14.6863L68.3733 17.8473C68.4544 17.9007 68.5225 17.9717 68.5724 18.055C68.6223 18.1384 68.6527 18.2319 68.6614 18.3287C68.6701 18.4254 68.6568 18.5229 68.6225 18.6138C68.5883 18.7047 68.534 18.7867 68.4636 18.8536L57.4969 29.4784C57.1744 29.788 57.0389 29.6977 57.2002 29.2784L62.6384 14.996Z" fill="white"/>
<path fill-rule="evenodd" clip-rule="evenodd" d="M36.97 69.4808C36.9358 69.5716 36.8815 69.6536 36.8112 69.7205C36.7409 69.7875 36.6565 69.8377 36.5641 69.8675C36.4717 69.8972 36.3738 69.9058 36.2776 69.8924C36.1815 69.8791 36.0896 69.8442 36.0088 69.7905L31.2415 66.6037C31.1592 66.5504 31.0901 66.4791 31.0395 66.3952C30.9889 66.3113 30.958 66.2169 30.9493 66.1193C30.9406 66.0217 30.9543 65.9233 30.9893 65.8318C31.0242 65.7402 31.0796 65.6578 31.1512 65.5909L42.1178 54.9726C42.4404 54.6629 42.5694 54.7532 42.4146 55.1661L36.97 69.4808Z" fill="white"/>
<path fill-rule="evenodd" clip-rule="evenodd" d="M29.9965 64.8297C29.9385 64.9082 29.8636 64.9725 29.7772 65.0178C29.6909 65.0632 29.5954 65.0884 29.4979 65.0915C29.4004 65.0946 29.3035 65.0755 29.2144 65.0358C29.1253 64.996 29.0464 64.9366 28.9837 64.8619L25.2744 60.4882C25.2107 60.4147 25.1644 60.3278 25.1391 60.234C25.1137 60.1401 25.1099 60.0418 25.1278 59.9462C25.1458 59.8507 25.1852 59.7605 25.2429 59.6823C25.3007 59.6041 25.3754 59.54 25.4614 59.4947L38.9375 52.3535C39.331 52.1471 39.4342 52.2696 39.1633 52.6244L29.9965 64.8297Z" fill="white"/>
<path fill-rule="evenodd" clip-rule="evenodd" d="M75.0436 26.0594C75.121 26.0003 75.2109 25.9596 75.3063 25.9403C75.4018 25.921 75.5004 25.9235 75.5948 25.9477C75.6891 25.9719 75.7767 26.0172 75.8511 26.0801C75.9255 26.143 75.9846 26.2219 76.0241 26.311L78.3916 31.5491C78.4325 31.6376 78.4528 31.7341 78.4511 31.8316C78.4493 31.929 78.4255 32.0248 78.3814 32.1117C78.3373 32.1986 78.2741 32.2744 78.1966 32.3334C78.119 32.3924 78.0291 32.433 77.9336 32.4523L63.0319 35.5487C62.5932 35.639 62.5287 35.4907 62.8835 35.2197L75.0436 26.0594Z" fill="white"/>
<path fill-rule="evenodd" clip-rule="evenodd" d="M24.5712 58.4109C24.4937 58.47 24.4039 58.5107 24.3084 58.53C24.2129 58.5493 24.1143 58.5468 24.02 58.5226C23.9257 58.4984 23.838 58.4531 23.7637 58.3902C23.6893 58.3273 23.6302 58.2484 23.5907 58.1594L21.2231 52.9212C21.1822 52.8327 21.1619 52.7362 21.1637 52.6387C21.1654 52.5413 21.1893 52.4455 21.2333 52.3586C21.2774 52.2717 21.3406 52.1959 21.4182 52.1369C21.4957 52.0779 21.5856 52.0373 21.6812 52.018L36.5829 48.9216C37.0151 48.8313 37.0796 48.9796 36.7248 49.2441L24.5712 58.4109Z" fill="white"/>
<path fill-rule="evenodd" clip-rule="evenodd" d="M78.4947 33.7425C78.586 33.7063 78.6843 33.6914 78.7821 33.699C78.88 33.7066 78.9749 33.7364 79.0595 33.7861C79.1441 33.8359 79.2162 33.9043 79.2704 33.9862C79.3245 34.0681 79.3593 34.1612 79.372 34.2585L80.2042 39.9483C80.219 40.0441 80.212 40.142 80.1838 40.2347C80.1555 40.3275 80.1067 40.4126 80.041 40.4839C79.9753 40.5552 79.8944 40.6108 79.8042 40.6465C79.7141 40.6822 79.6171 40.6971 79.5204 40.6902L64.3477 39.5096C63.9091 39.4709 63.8833 39.3161 64.2961 39.1548L78.4947 33.7425Z" fill="white"/>
<path fill-rule="evenodd" clip-rule="evenodd" d="M79.7075 42.09C79.8053 42.081 79.9038 42.0944 79.9955 42.1292C80.0873 42.164 80.1699 42.2192 80.2371 42.2908C80.3043 42.3623 80.3543 42.4482 80.3832 42.542C80.4122 42.6358 80.4194 42.7349 80.4042 42.8319L79.643 48.541C79.6307 48.6373 79.5967 48.7296 79.5437 48.8109C79.4907 48.8923 79.42 48.9606 79.3369 49.0108C79.2538 49.0611 79.1604 49.0919 79.0638 49.101C78.9671 49.1101 78.8696 49.0973 78.7786 49.0635L64.5284 43.6769C64.1156 43.5221 64.1349 43.3609 64.58 43.3286L79.7075 42.09Z" fill="white"/>
<path fill-rule="evenodd" clip-rule="evenodd" d="M19.9071 42.3803C19.8093 42.3893 19.7108 42.3759 19.6191 42.3411C19.5273 42.3064 19.4447 42.2511 19.3775 42.1796C19.3103 42.108 19.2603 42.0221 19.2314 41.9283C19.2024 41.8346 19.1952 41.7354 19.2104 41.6384L19.9651 35.9358C19.9784 35.8426 20.0119 35.7534 20.0633 35.6745C20.1147 35.5956 20.1827 35.5289 20.2627 35.4791C20.3426 35.4293 20.4324 35.3976 20.5259 35.3862C20.6194 35.3749 20.7142 35.3841 20.8037 35.4133L35.0862 40.7998C35.499 40.9546 35.4797 41.1159 35.0346 41.1482L19.9071 42.3803Z" fill="white"/>
<path fill-rule="evenodd" clip-rule="evenodd" d="M78.5722 50.4762C78.6697 50.4936 78.7619 50.5331 78.8417 50.5918C78.9214 50.6506 78.9866 50.7268 79.0322 50.8148C79.0777 50.9028 79.1024 51 79.1043 51.099C79.1062 51.1981 79.0852 51.2962 79.0431 51.3858L76.7465 56.6563C76.7138 56.7493 76.6588 56.833 76.5863 56.9C76.5139 56.967 76.4262 57.0153 76.3308 57.0407C76.2355 57.0662 76.1354 57.0679 76.0392 57.0459C75.943 57.0239 75.8537 56.9787 75.7789 56.9143L63.5608 47.7604C63.206 47.4959 63.2705 47.3475 63.7027 47.4378L78.5722 50.4762Z" fill="white"/>
<path fill-rule="evenodd" clip-rule="evenodd" d="M21.0362 34.0198C20.9401 34.0014 20.8495 33.9613 20.7711 33.9027C20.6928 33.8441 20.6289 33.7684 20.5841 33.6813C20.5394 33.5943 20.515 33.4983 20.5129 33.4005C20.5107 33.3026 20.5308 33.2056 20.5717 33.1167L22.8618 27.8463C22.9009 27.7577 22.9594 27.6791 23.0329 27.6162C23.1065 27.5534 23.1933 27.5079 23.2868 27.4831C23.3804 27.4583 23.4783 27.4549 23.5734 27.4731C23.6684 27.4913 23.7581 27.5306 23.8359 27.5882L36.054 36.7422C36.4088 37.0066 36.3443 37.155 35.9121 37.0647L21.0362 34.0198Z" fill="white"/>
<path fill-rule="evenodd" clip-rule="evenodd" d="M24.4163 26.3045C24.3303 26.2603 24.2554 26.1973 24.197 26.1201C24.1387 26.043 24.0985 25.9538 24.0793 25.859C24.0601 25.7643 24.0624 25.6664 24.0861 25.5727C24.1098 25.4789 24.1543 25.3917 24.2163 25.3175L27.8998 20.8793C27.9602 20.8039 28.0368 20.7431 28.1239 20.7013C28.211 20.6595 28.3064 20.6378 28.403 20.6378C28.4996 20.6378 28.5949 20.6595 28.682 20.7013C28.7691 20.7431 28.8457 20.8039 28.9061 20.8793L38.131 33.0845C38.402 33.4457 38.2987 33.5683 37.9052 33.3554L24.4163 26.3045Z" fill="white"/>
<path fill-rule="evenodd" clip-rule="evenodd" d="M69.8312 64.6684C69.9043 64.7348 69.9612 64.8172 69.9974 64.9092C70.0337 65.0011 70.0483 65.1001 70.0402 65.1986C70.0321 65.2971 70.0015 65.3925 69.9507 65.4772C69.8999 65.562 69.8303 65.634 69.7473 65.6876L65.0316 68.9131C64.9513 68.967 64.8598 69.0022 64.7639 69.016C64.6681 69.0297 64.5704 69.0218 64.4781 68.9926C64.3858 68.9635 64.3012 68.914 64.2307 68.8477C64.1601 68.7815 64.1053 68.7002 64.0704 68.6099L58.5549 54.3017C58.3936 53.8824 58.5549 53.7985 58.8452 54.1081L69.8312 64.6684Z" fill="white"/>
<path fill-rule="evenodd" clip-rule="evenodd" d="M29.7835 19.8342C29.7087 19.7701 29.6496 19.6896 29.6107 19.5991C29.5718 19.5086 29.5542 19.4103 29.5592 19.3119C29.5642 19.2135 29.5916 19.1175 29.6394 19.0314C29.6873 18.9453 29.7542 18.8712 29.8351 18.8149L34.5572 15.5895C34.6372 15.5354 34.7282 15.4999 34.8237 15.4857C34.9192 15.4715 35.0167 15.4789 35.1089 15.5074C35.2012 15.5359 35.2858 15.5847 35.3567 15.6503C35.4276 15.7158 35.4828 15.7965 35.5184 15.8862L41.0598 30.2009C41.221 30.6138 41.0598 30.7041 40.7695 30.3944L29.7835 19.8342Z" fill="white"/>
<path fill-rule="evenodd" clip-rule="evenodd" d="M62.0319 69.7646C62.0807 69.8499 62.1094 69.9452 62.1157 70.0432C62.1221 70.1412 62.106 70.2394 62.0687 70.3302C62.0313 70.421 61.9738 70.5022 61.9003 70.5674C61.8269 70.6326 61.7395 70.6802 61.6449 70.7065L56.168 72.3128C56.0753 72.339 55.978 72.3441 55.8831 72.3277C55.7882 72.3114 55.6982 72.274 55.6196 72.2183C55.541 72.1627 55.4759 72.0901 55.429 72.006C55.3822 71.9218 55.3547 71.8283 55.3487 71.7322L54.4585 56.4047C54.4585 55.9531 54.5875 55.908 54.8004 56.3079L62.0319 69.7646Z" fill="white"/>
<path fill-rule="evenodd" clip-rule="evenodd" d="M37.5765 14.7057C37.5278 14.62 37.4993 14.5243 37.4934 14.4259C37.4874 14.3275 37.5041 14.2291 37.5421 14.1382C37.58 14.0472 37.6384 13.9662 37.7126 13.9013C37.7867 13.8364 37.8748 13.7894 37.97 13.7638L43.4468 12.1576C43.5395 12.1314 43.6369 12.1263 43.7318 12.1426C43.8267 12.1589 43.9167 12.1963 43.9953 12.252C44.0738 12.3077 44.1389 12.3802 44.1858 12.4644C44.2327 12.5485 44.2601 12.642 44.2661 12.7381L45.1564 28.0656C45.1564 28.5172 45.0273 28.5559 44.8145 28.1624L37.5765 14.7057Z" fill="white"/>
</svg>
