<svg width="381" height="245" viewBox="0 0 381 245" fill="none" xmlns="http://www.w3.org/2000/svg">
<path fill-rule="evenodd" clip-rule="evenodd" d="M285.708 232.327C284.986 236.657 281.016 239.544 276.685 238.823C272.355 238.101 269.468 234.131 270.189 229.8C270.911 225.47 274.881 222.583 279.212 223.304C283.903 224.026 286.79 227.996 285.708 232.327Z" fill="#EB5D40"/>
<path fill-rule="evenodd" clip-rule="evenodd" d="M243.123 243.153C243.123 244.597 243.484 244.597 243.845 243.153L252.867 218.613C253.228 217.169 254.671 216.448 256.115 217.169L267.663 222.944C269.107 223.665 269.468 222.943 268.746 221.861L261.889 210.312C261.167 209.23 261.528 207.425 262.972 206.704L286.068 193.712C287.512 192.99 287.151 192.629 285.707 192.99L258.28 199.125C256.836 199.486 255.032 198.764 254.31 197.321L253.228 195.516C252.506 194.433 250.701 192.629 249.619 191.907L207.756 166.284C206.673 165.562 206.312 165.923 207.034 167.006L235.905 206.343C236.627 207.425 238.431 208.869 239.875 209.591L242.401 210.673C243.845 211.395 244.566 213.2 244.566 214.643L243.123 243.153Z" fill="#EB5D40"/>
<path fill-rule="evenodd" clip-rule="evenodd" d="M299.06 13.629C298.339 17.9597 294.369 20.8468 290.038 20.125C285.708 19.4032 282.82 15.4335 283.542 11.1028C284.264 6.77218 288.234 3.8851 292.564 4.60687C296.534 4.96776 299.782 9.2984 299.06 13.629Z" fill="#EB5D40"/>
<path fill-rule="evenodd" clip-rule="evenodd" d="M354.637 9.29835C353.915 13.629 349.945 16.5161 345.615 15.7943C341.284 15.0726 338.397 11.1028 339.119 6.77215C339.841 2.4415 343.81 -0.44559 348.141 0.276185C352.111 0.997959 355.359 4.9677 354.637 9.29835Z" fill="#EB5D40"/>
<path fill-rule="evenodd" clip-rule="evenodd" d="M348.141 64.1533C348.141 62.7097 349.584 61.6271 351.028 61.988L379.177 66.6795C380.621 67.0404 380.982 66.3186 379.899 65.2359L356.441 41.7783C355.359 40.6956 355.359 38.8912 356.441 37.8085L371.599 19.7642C372.681 18.6815 372.32 18.3206 370.877 19.0424L353.193 29.869C352.111 30.5908 350.306 30.2299 349.945 28.7863L346.336 19.7642C345.615 18.3206 344.893 18.3206 344.171 19.7642L340.562 28.4254C340.201 29.869 338.397 30.9517 336.953 31.3126L309.887 35.2823C308.443 35.6432 305.917 35.6432 304.474 36.0041L279.212 38.1694C277.768 38.1694 277.046 37.4476 277.407 36.0041L282.82 23.373C283.542 21.9295 282.82 21.5686 281.738 22.2904L266.58 31.3126C265.498 32.0343 263.693 31.6734 262.972 30.2299L247.453 4.96778C246.732 3.88512 246.371 3.88512 246.732 5.32866L253.949 36.0041C254.31 37.4476 253.949 39.613 252.867 40.6956L214.974 84.7238C213.891 85.8065 214.252 86.1674 215.695 85.8065L250.701 71.0101C252.145 70.2884 254.31 70.2884 255.754 70.2884L290.76 76.4235C292.203 76.7843 292.203 76.4234 291.121 75.3408L269.828 61.988C268.746 61.2662 268.024 59.4617 268.746 58.0182L270.911 52.6049C271.633 51.1613 273.076 49.7178 274.52 49.3569L301.587 39.2521C303.03 38.8912 305.195 38.5303 306.639 38.5303L332.262 42.1392C333.705 42.5001 335.149 43.5827 335.51 45.0263L344.171 89.7763C344.532 91.2198 344.893 91.2198 344.893 89.7763L348.141 64.1533Z" fill="#EB5D40"/>
<path fill-rule="evenodd" clip-rule="evenodd" d="M43.9132 95.1895C44.2741 99.5201 40.6653 103.129 36.3346 103.49C32.004 103.851 28.3951 100.242 28.0342 95.9112C27.6733 91.5806 31.2822 87.9717 35.6128 87.6108C39.9435 87.25 43.9132 90.4979 43.9132 95.1895Z" fill="#EB5D40"/>
<path fill-rule="evenodd" clip-rule="evenodd" d="M101.655 148.24C103.099 147.879 103.099 147.518 101.655 147.518L57.9877 148.601C56.5442 148.601 55.1006 147.518 54.3789 146.075L50.77 135.609C50.4091 134.165 50.4091 132 50.77 130.556L60.8748 98.7984C61.2357 97.3548 60.8748 97.3548 60.153 98.4375L45.3567 116.121C44.274 117.204 43.1914 117.204 42.4696 115.76L38.8607 107.46C38.1389 106.016 37.7781 106.377 37.7781 107.821L37.0563 119.369C37.0563 120.812 35.6127 121.895 34.1692 121.895L2.05022 121.534C0.606675 121.534 0.606677 121.895 1.68934 122.617L35.9736 137.052C37.4172 137.774 38.1389 139.218 38.1389 140.661L27.6732 207.786C27.3123 209.23 28.0341 209.23 28.395 208.147L51.1309 167.728C51.8526 166.284 53.6571 164.841 55.1006 164.48L101.655 148.24Z" fill="#EB5D40"/>
<path fill-rule="evenodd" clip-rule="evenodd" d="M153.623 38.8912C153.262 37.4477 154.345 36.365 155.788 36.365L174.555 36.7259C175.998 36.7259 177.081 37.8085 176.72 39.2521L164.45 87.9718C164.089 89.4154 163.728 89.4154 163.367 87.9718L153.623 38.8912Z" fill="#6F9DBE"/>
<path fill-rule="evenodd" clip-rule="evenodd" d="M176.72 234.853C177.081 236.296 175.998 237.379 174.555 237.379L155.788 237.018C154.345 237.018 153.262 235.935 153.623 234.492L165.893 185.772C166.254 184.329 166.615 184.329 166.976 185.772L176.72 234.853Z" fill="#6F9DBE"/>
<path fill-rule="evenodd" clip-rule="evenodd" d="M181.05 39.613C181.05 38.1694 182.494 37.4476 183.937 37.8085L201.982 43.2218C203.425 43.5827 203.786 45.0263 203.065 46.4698L177.802 89.7763C177.081 91.2198 176.72 90.859 176.72 89.4154L181.05 39.613Z" fill="#00537F"/>
<path fill-rule="evenodd" clip-rule="evenodd" d="M148.931 234.131C148.931 235.575 147.488 236.296 146.044 235.936L128 230.522C126.556 230.161 126.196 228.718 126.917 227.274L152.179 183.968C152.901 182.524 153.262 182.885 153.262 184.329L148.931 234.131Z" fill="#00537F"/>
<path fill-rule="evenodd" clip-rule="evenodd" d="M207.395 47.9133C207.756 46.4697 209.2 46.1088 210.643 46.8306L226.522 57.2963C227.605 58.0181 227.966 59.4617 226.883 60.5443L190.794 95.1895C189.712 96.2722 189.351 95.9113 189.712 94.4677L207.395 47.9133Z" fill="#00537F"/>
<path fill-rule="evenodd" clip-rule="evenodd" d="M122.587 225.831C122.226 227.274 120.782 227.635 119.339 226.913L103.46 216.448C102.377 215.726 102.016 214.282 103.099 213.2L139.187 178.554C140.27 177.472 140.631 177.833 140.27 179.276L122.587 225.831Z" fill="#00537F"/>
<path fill-rule="evenodd" clip-rule="evenodd" d="M99.8508 210.673C99.129 211.756 97.3246 211.756 96.6028 210.673L84.3326 196.238C83.25 195.155 83.6109 193.712 85.0544 192.99L129.444 169.532C130.887 168.81 131.248 169.171 130.165 170.254L99.8508 210.673Z" fill="#6F9DBE"/>
<path fill-rule="evenodd" clip-rule="evenodd" d="M248.176 84.0021C249.258 83.2803 250.702 83.6412 251.423 84.7239L259.363 101.686C260.085 103.129 259.363 104.212 257.919 104.573L208.839 115.038C207.395 115.399 207.034 115.038 208.478 113.956L248.176 84.0021Z" fill="#00537F"/>
<path fill-rule="evenodd" clip-rule="evenodd" d="M81.8066 189.742C80.7239 190.464 79.2804 190.103 78.5586 189.02L70.6191 172.059C69.8973 170.615 70.6191 169.532 72.0626 169.171L121.143 159.067C122.587 158.706 122.948 159.067 121.504 160.149L81.8066 189.742Z" fill="#00537F"/>
<path fill-rule="evenodd" clip-rule="evenodd" d="M259.724 109.264C261.167 108.903 262.25 109.625 262.611 111.069L265.498 129.835C265.859 131.278 264.776 132.361 263.333 132.361L213.169 128.391C211.726 128.391 211.726 127.669 213.169 127.308L259.724 109.264Z" fill="#00537F"/>
<path fill-rule="evenodd" clip-rule="evenodd" d="M263.693 136.331C265.137 136.331 266.22 137.413 265.859 138.857L263.333 157.623C262.972 159.066 261.889 159.788 260.445 159.427L213.53 141.744C212.087 141.383 212.087 140.661 213.53 140.661L263.693 136.331Z" fill="#6F9DBE"/>
<path fill-rule="evenodd" clip-rule="evenodd" d="M66.2882 137.413C64.8447 137.413 63.762 136.331 64.1229 134.887L66.6491 116.121C67.01 114.677 68.0927 113.956 69.5362 114.317L116.452 132C117.895 132.361 117.895 133.083 116.452 133.083L66.2882 137.413Z" fill="#00537F"/>
<path fill-rule="evenodd" clip-rule="evenodd" d="M260.085 163.758C261.528 164.119 262.25 165.563 261.528 166.645L253.95 183.968C253.228 185.411 251.784 185.772 250.702 184.69L210.282 154.736C209.2 154.014 209.2 153.292 210.643 153.653L260.085 163.758Z" fill="#00537F"/>
<path fill-rule="evenodd" clip-rule="evenodd" d="M70.2582 109.986C68.8146 109.625 68.0929 108.182 68.8147 107.099L76.3933 89.7763C77.115 88.3328 78.5586 87.9719 79.6413 89.0546L120.061 119.008C121.143 119.73 121.143 120.452 119.7 120.091L70.2582 109.986Z" fill="#00537F"/>
<path fill-rule="evenodd" clip-rule="evenodd" d="M81.4456 84.7239C80.0021 84.0021 80.0021 82.5585 80.7239 81.4759L92.6331 67.0404C93.7158 65.9577 95.1593 65.9577 95.8811 67.0404L126.196 107.099C126.917 108.182 126.917 108.542 125.474 107.821L81.4456 84.7239Z" fill="#6F9DBE"/>
<path fill-rule="evenodd" clip-rule="evenodd" d="M231.214 209.952C232.296 211.034 232.296 212.478 230.853 213.2L215.335 223.665C214.252 224.387 212.809 224.026 212.087 222.583L194.042 175.667C193.682 174.224 194.042 173.863 195.125 174.946L231.214 209.952Z" fill="#00537F"/>
<path fill-rule="evenodd" clip-rule="evenodd" d="M99.1289 63.7924C98.0462 62.7097 98.0463 61.2662 99.4898 60.5444L115.008 50.0787C116.091 49.3569 117.534 49.7178 118.256 51.1613L136.3 98.0766C136.661 99.5202 136.3 99.8811 135.218 98.7984L99.1289 63.7924Z" fill="#00537F"/>
<path fill-rule="evenodd" clip-rule="evenodd" d="M205.591 226.913C206.312 228.357 205.591 229.44 204.147 230.161L186.103 235.575C184.659 235.936 183.577 235.214 183.216 233.77L180.329 183.607C180.329 182.163 180.69 182.163 181.411 183.246L205.591 226.913Z" fill="#00537F"/>
<path fill-rule="evenodd" clip-rule="evenodd" d="M124.752 46.8307C124.03 45.3871 124.752 44.3044 126.196 43.5827L144.24 38.1694C145.684 37.8085 146.766 38.5302 147.127 39.9738L150.014 90.1372C150.014 91.5807 149.653 91.5807 148.932 90.498L124.752 46.8307Z" fill="#00537F"/>
</svg>
